<?xml version="1.0" encoding="UTF-8" standalone="no"?>
<!DOCTYPE svg PUBLIC "-//W3C//DTD SVG 1.1//EN"
 "http://www.w3.org/Graphics/SVG/1.1/DTD/svg11.dtd">
<!-- Generated by graphviz version 2.38.0 (20140413.2041)
 -->
<!-- Title: %3 Pages: 1 -->
<svg width="159pt" height="247pt"
 viewBox="0.00 0.00 159.43 246.88" xmlns="http://www.w3.org/2000/svg" xmlns:xlink="http://www.w3.org/1999/xlink">
<g id="graph0" class="graph" transform="scale(1 1) rotate(0) translate(4 242.877)">
<title>%3</title>
<polygon fill="white" stroke="none" points="-4,4 -4,-242.877 155.426,-242.877 155.426,4 -4,4"/>
<!-- A -->
<g id="node1" class="node"><title>A</title>
<polygon fill="lightgray" stroke="black" points="38.7132,-226.664 15.7132,-226.664 15.7132,-208.664 38.7132,-208.664 38.7132,-226.664"/>
<text text-anchor="middle" x="27.2132" y="-215.464" font-family="Times,serif" font-size="9.00">A</text>
</g>
<!-- 189 -->
<g id="node5" class="node"><title>189</title>
<ellipse fill="white" stroke="black" cx="21.2132" cy="-135.702" rx="21.4286" ry="21.4286"/>
<text text-anchor="middle" x="21.2132" y="-133.502" font-family="Times,serif" font-size="9.00">189</text>
</g>
<!-- A&#45;&gt;189 -->
<g id="edge1" class="edge"><title>A&#45;&gt;189</title>
<path fill="none" stroke="green" stroke-width="0.994519" d="M26.5937,-208.408C25.8661,-198.711 24.617,-182.065 23.5055,-167.251"/>
<polygon fill="green" stroke="green" stroke-width="0.994519" points="26.9683,-166.624 22.7298,-156.914 19.988,-167.148 26.9683,-166.624"/>
</g>
<!-- 1007 -->
<g id="node6" class="node"><title>1007</title>
<ellipse fill="white" stroke="black" cx="85.2132" cy="-135.702" rx="25" ry="25"/>
<text text-anchor="middle" x="85.2132" y="-133.502" font-family="Times,serif" font-size="9.00">1007</text>
</g>
<!-- A&#45;&gt;1007 -->
<g id="edge4" class="edge"><title>A&#45;&gt;1007</title>
<path fill="none" stroke="green" stroke-width="0.348126" d="M33.2018,-208.408C40.6745,-198.105 53.8367,-179.959 65.05,-164.5"/>
<polygon fill="green" stroke="green" stroke-width="0.348126" points="67.9922,-166.405 71.0306,-156.255 62.3259,-162.295 67.9922,-166.405"/>
</g>
<!-- B -->
<g id="node2" class="node"><title>B</title>
<polygon fill="lightgray" stroke="black" points="90.7132,-226.664 67.7132,-226.664 67.7132,-208.664 90.7132,-208.664 90.7132,-226.664"/>
<text text-anchor="middle" x="79.2132" y="-215.464" font-family="Times,serif" font-size="9.00">B</text>
</g>
<!-- B&#45;&gt;189 -->
<g id="edge3" class="edge"><title>B&#45;&gt;189</title>
<path fill="none" stroke="red" stroke-width="0.874333" d="M73.2246,-208.408C65.3123,-197.499 51.0215,-177.797 39.4194,-161.802"/>
<polygon fill="red" stroke="red" stroke-width="0.874333" points="42.0126,-159.416 33.3079,-153.376 36.3463,-163.526 42.0126,-159.416"/>
</g>
<!-- B&#45;&gt;1007 -->
<g id="edge5" class="edge"><title>B&#45;&gt;1007</title>
<path fill="none" stroke="red" stroke-width="0.369392" d="M79.8327,-208.408C80.5008,-199.505 81.6084,-184.743 82.6456,-170.921"/>
<polygon fill="red" stroke="red" stroke-width="0.369392" points="86.1584,-170.88 83.4166,-160.646 79.178,-170.356 86.1584,-170.88"/>
</g>
<!-- A XOR B -->
<g id="node3" class="node"><title>A XOR B</title>
<ellipse fill="lightblue" stroke="black" cx="53.2132" cy="-37.4767" rx="37.4533" ry="37.4533"/>
<text text-anchor="middle" x="53.2132" y="-35.2767" font-family="Times,serif" font-size="9.00">A XOR B</text>
</g>
<!-- 296 -->
<g id="node4" class="node"><title>296</title>
<ellipse fill="white" stroke="black" cx="130.213" cy="-217.664" rx="21.4286" ry="21.4286"/>
<text text-anchor="middle" x="130.213" y="-215.464" font-family="Times,serif" font-size="9.00">296</text>
</g>
<!-- 189&#45;&gt;A XOR B -->
<g id="edge2" class="edge"><title>189&#45;&gt;A XOR B</title>
<path fill="none" stroke="green" stroke-width="0.630191" d="M27.6889,-115.229C30.7681,-105.97 34.5874,-94.4853 38.3253,-83.2453"/>
<polygon fill="green" stroke="green" stroke-width="0.630191" points="41.734,-84.0862 41.5685,-73.4927 35.0917,-81.8773 41.734,-84.0862"/>
</g>
<!-- 1007&#45;&gt;A XOR B -->
<g id="edge6" class="edge"><title>1007&#45;&gt;A XOR B</title>
<path fill="none" stroke="red" stroke-width="0.629572" d="M77.6297,-111.898C74.7164,-103.138 71.2828,-92.8126 67.9252,-82.7164"/>
<polygon fill="red" stroke="red" stroke-width="0.629572" points="71.2258,-81.5498 64.749,-73.1652 64.5835,-83.7588 71.2258,-81.5498"/>
</g>
</g>
</svg>
