<?xml version="1.0" encoding="UTF-8" standalone="no"?>
<!DOCTYPE svg PUBLIC "-//W3C//DTD SVG 1.1//EN"
 "http://www.w3.org/Graphics/SVG/1.1/DTD/svg11.dtd">
<!-- Generated by graphviz version 2.38.0 (20140413.2041)
 -->
<!-- Title: %3 Pages: 1 -->
<svg width="144pt" height="367pt"
 viewBox="0.00 0.00 143.98 366.58" xmlns="http://www.w3.org/2000/svg" xmlns:xlink="http://www.w3.org/1999/xlink">
<g id="graph0" class="graph" transform="scale(1 1) rotate(0) translate(4 362.576)">
<title>%3</title>
<polygon fill="white" stroke="none" points="-4,4 -4,-362.576 139.977,-362.576 139.977,4 -4,4"/>
<!-- A -->
<g id="node1" class="node"><title>A</title>
<polygon fill="lightgray" stroke="black" points="73.9767,-358.576 50.9767,-358.576 50.9767,-340.576 73.9767,-340.576 73.9767,-358.576"/>
<text text-anchor="middle" x="62.4767" y="-347.376" font-family="Times New Roman,serif" font-size="9.00">A</text>
</g>
<!-- 98 -->
<g id="node4" class="node"><title>98</title>
<ellipse fill="white" stroke="black" cx="51.4767" cy="-286.191" rx="18.2703" ry="18.2703"/>
<text text-anchor="middle" x="51.4767" y="-283.991" font-family="Times New Roman,serif" font-size="9.00">98</text>
</g>
<!-- A&#45;&gt;98 -->
<g id="edge8" class="edge"><title>A&#45;&gt;98</title>
<path fill="none" stroke="green" stroke-width="0.693729" d="M61.0386,-340.551C59.8411,-333.868 58.0632,-323.947 56.3643,-314.466"/>
<polygon fill="green" stroke="green" stroke-width="0.693729" points="59.792,-313.751 54.5829,-304.525 52.9017,-314.986 59.792,-313.751"/>
</g>
<!-- 655 -->
<g id="node6" class="node"><title>655</title>
<ellipse fill="white" stroke="black" cx="100.477" cy="-210.593" rx="21.4286" ry="21.4286"/>
<text text-anchor="middle" x="100.477" y="-208.393" font-family="Times New Roman,serif" font-size="9.00">655</text>
</g>
<!-- A&#45;&gt;655 -->
<g id="edge4" class="edge"><title>A&#45;&gt;655</title>
<path fill="none" stroke="red" stroke-width="0.281861" d="M65.711,-340.561C69.1654,-331.813 74.6578,-317.347 78.4767,-304.576 84.7029,-283.753 90.3184,-259.89 94.3176,-241.552"/>
<polygon fill="red" stroke="red" stroke-width="0.281861" points="97.7507,-242.234 96.4221,-231.723 90.9058,-240.769 97.7507,-242.234"/>
</g>
<!-- B -->
<g id="node2" class="node"><title>B</title>
<polygon fill="lightgray" stroke="black" points="135.977,-358.576 112.977,-358.576 112.977,-340.576 135.977,-340.576 135.977,-358.576"/>
<text text-anchor="middle" x="124.477" y="-347.376" font-family="Times New Roman,serif" font-size="9.00">B</text>
</g>
<!-- B&#45;&gt;98 -->
<g id="edge7" class="edge"><title>B&#45;&gt;98</title>
<path fill="none" stroke="green" stroke-width="0.533137" d="M114.933,-340.551C104.337,-331.64 86.891,-316.97 72.9711,-305.265"/>
<polygon fill="green" stroke="green" stroke-width="0.533137" points="75.1673,-302.539 65.261,-298.782 70.6622,-307.897 75.1673,-302.539"/>
</g>
<!-- B&#45;&gt;655 -->
<g id="edge6" class="edge"><title>B&#45;&gt;655</title>
<path fill="none" stroke="red" stroke-width="0.161389" d="M123.274,-340.536C121.08,-325.996 116.213,-294.373 111.477,-267.806 109.951,-259.245 108.184,-249.974 106.518,-241.476"/>
<polygon fill="red" stroke="red" stroke-width="0.161389" points="109.937,-240.724 104.561,-231.595 103.071,-242.085 109.937,-240.724"/>
</g>
<!-- A XOR B -->
<g id="node3" class="node"><title>A XOR B</title>
<ellipse fill="lightblue" stroke="black" cx="37.4767" cy="-37.4767" rx="37.4533" ry="37.4533"/>
<text text-anchor="middle" x="37.4767" y="-35.2767" font-family="Times New Roman,serif" font-size="9.00">A XOR B</text>
</g>
<!-- 98&#45;&gt;A XOR B -->
<g id="edge1" class="edge"><title>98&#45;&gt;A XOR B</title>
<path fill="none" stroke="green" stroke-width="0.462436" d="M48.1573,-267.793C43.5464,-242.655 35.4365,-194.659 32.4767,-153.38 31.1281,-134.572 31.8274,-129.798 32.4767,-110.953 32.7638,-102.619 33.2361,-93.7554 33.7789,-85.1917"/>
<polygon fill="green" stroke="green" stroke-width="0.462436" points="37.2886,-85.1627 34.468,-74.9503 30.3044,-84.6927 37.2886,-85.1627"/>
</g>
<!-- 454 -->
<g id="node5" class="node"><title>454</title>
<ellipse fill="white" stroke="black" cx="62.4767" cy="-132.167" rx="21.4286" ry="21.4286"/>
<text text-anchor="middle" x="62.4767" y="-129.967" font-family="Times New Roman,serif" font-size="9.00">454</text>
</g>
<!-- 98&#45;&gt;454 -->
<g id="edge3" class="edge"><title>98&#45;&gt;454</title>
<path fill="none" stroke="red" stroke-width="0.435781" stroke-dasharray="1,5" d="M52.7385,-267.752C54.5659,-242.496 57.9771,-195.352 60.2378,-164.109"/>
<polygon fill="red" stroke="red" stroke-width="0.435781" points="63.754,-164.009 60.9849,-153.783 56.7723,-163.504 63.754,-164.009"/>
</g>
<!-- 98&#45;&gt;655 -->
<g id="edge5" class="edge"><title>98&#45;&gt;655</title>
<path fill="none" stroke="green" stroke-width="0.111331" d="M61.3925,-270.297C67.7034,-260.818 76.0441,-248.291 83.3992,-237.243"/>
<polygon fill="green" stroke="green" stroke-width="0.111331" points="86.4004,-239.051 89.0289,-228.787 80.5736,-235.172 86.4004,-239.051"/>
</g>
<!-- 454&#45;&gt;A XOR B -->
<g id="edge9" class="edge"><title>454&#45;&gt;A XOR B</title>
<path fill="none" stroke="red" stroke-width="0.446962" d="M57.1748,-111.509C54.9603,-103.299 52.2887,-93.3936 49.6374,-83.5637"/>
<polygon fill="red" stroke="red" stroke-width="0.446962" points="52.994,-82.568 47.0106,-73.8245 46.2355,-84.3909 52.994,-82.568"/>
</g>
<!-- 655&#45;&gt;454 -->
<g id="edge2" class="edge"><title>655&#45;&gt;454</title>
<path fill="none" stroke="red" stroke-width="0.412799" d="M91.2779,-191.092C86.7503,-181.986 81.2002,-170.824 76.1847,-160.736"/>
<polygon fill="red" stroke="red" stroke-width="0.412799" points="79.1769,-158.893 71.5907,-151.497 72.9089,-162.009 79.1769,-158.893"/>
</g>
</g>
</svg>
