<?xml version="1.0" encoding="UTF-8" standalone="no"?>
<!DOCTYPE svg PUBLIC "-//W3C//DTD SVG 1.1//EN"
 "http://www.w3.org/Graphics/SVG/1.1/DTD/svg11.dtd">
<!-- Generated by graphviz version 2.38.0 (20140413.2041)
 -->
<!-- Title: %3 Pages: 1 -->
<svg width="169pt" height="222pt"
 viewBox="0.00 0.00 169.23 222.45" xmlns="http://www.w3.org/2000/svg" xmlns:xlink="http://www.w3.org/1999/xlink">
<g id="graph0" class="graph" transform="scale(1 1) rotate(0) translate(4 218.451)">
<title>%3</title>
<polygon fill="white" stroke="none" points="-4,4 -4,-218.451 165.225,-218.451 165.225,4 -4,4"/>
<!-- A -->
<g id="node1" class="node"><title>A</title>
<polygon fill="lightgray" stroke="black" points="25.9767,-214.451 2.97666,-214.451 2.97666,-196.451 25.9767,-196.451 25.9767,-214.451"/>
<text text-anchor="middle" x="14.4767" y="-203.251" font-family="Times New Roman,serif" font-size="9.00">A</text>
</g>
<!-- A XOR B -->
<g id="node3" class="node"><title>A XOR B</title>
<ellipse fill="lightblue" stroke="black" cx="37.4767" cy="-37.4767" rx="37.4533" ry="37.4533"/>
<text text-anchor="middle" x="37.4767" y="-35.2767" font-family="Times New Roman,serif" font-size="9.00">A XOR B</text>
</g>
<!-- A&#45;&gt;A XOR B -->
<g id="edge1" class="edge"><title>A&#45;&gt;A XOR B</title>
<path fill="none" stroke="red" stroke-width="0.335733" d="M13.519,-196.356C12.528,-187.541 11.0467,-173.017 10.4767,-160.451 9.47979,-138.475 6.57494,-132.603 10.4767,-110.953 12.2265,-101.244 15.1961,-91.1371 18.5412,-81.6614"/>
<polygon fill="red" stroke="red" stroke-width="0.335733" points="21.9078,-82.6507 22.1275,-72.0581 15.3501,-80.2017 21.9078,-82.6507"/>
</g>
<!-- 84 -->
<g id="node4" class="node"><title>84</title>
<ellipse fill="white" stroke="black" cx="37.4767" cy="-135.702" rx="18.2703" ry="18.2703"/>
<text text-anchor="middle" x="37.4767" y="-133.502" font-family="Times New Roman,serif" font-size="9.00">84</text>
</g>
<!-- A&#45;&gt;84 -->
<g id="edge2" class="edge"><title>A&#45;&gt;84</title>
<path fill="none" stroke="red" stroke-width="0.808585" d="M17.2054,-196.413C20.0129,-188.143 24.5375,-174.816 28.6006,-162.847"/>
<polygon fill="red" stroke="red" stroke-width="0.808585" points="31.9566,-163.849 31.8571,-153.255 25.3281,-161.599 31.9566,-163.849"/>
</g>
<!-- B -->
<g id="node2" class="node"><title>B</title>
<polygon fill="lightgray" stroke="black" points="94.9767,-214.451 71.9767,-214.451 71.9767,-196.451 94.9767,-196.451 94.9767,-214.451"/>
<text text-anchor="middle" x="83.4767" y="-203.251" font-family="Times New Roman,serif" font-size="9.00">B</text>
</g>
<!-- B&#45;&gt;A XOR B -->
<g id="edge5" class="edge"><title>B&#45;&gt;A XOR B</title>
<path fill="none" stroke="red" stroke-width="0.377855" d="M82.2672,-196.345C79.7331,-180.002 73.3577,-142.008 64.4767,-110.953 61.7639,-101.468 58.3841,-91.4563 54.9437,-82.0028"/>
<polygon fill="red" stroke="red" stroke-width="0.377855" points="58.1356,-80.5451 51.3619,-72.3984 51.5769,-82.9911 58.1356,-80.5451"/>
</g>
<!-- B&#45;&gt;84 -->
<g id="edge3" class="edge"><title>B&#45;&gt;84</title>
<path fill="none" stroke="red" stroke-width="1.47122" d="M78.0192,-196.413C71.9089,-187.414 61.7317,-172.425 53.1029,-159.716"/>
<polygon fill="red" stroke="red" stroke-width="1.47122" points="55.9586,-157.691 47.4456,-151.384 50.1673,-161.624 55.9586,-157.691"/>
</g>
<!-- 1318 -->
<g id="node5" class="node"><title>1318</title>
<ellipse fill="white" stroke="black" cx="136.477" cy="-135.702" rx="25" ry="25"/>
<text text-anchor="middle" x="136.477" y="-133.502" font-family="Times New Roman,serif" font-size="9.00">1318</text>
</g>
<!-- B&#45;&gt;1318 -->
<g id="edge6" class="edge"><title>B&#45;&gt;1318</title>
<path fill="none" stroke="red" stroke-width="0.406542" stroke-dasharray="1,5" d="M89.7646,-196.413C96.0918,-188.325 106.204,-175.399 115.404,-163.639"/>
<polygon fill="red" stroke="red" stroke-width="0.406542" points="118.165,-165.79 121.57,-155.757 112.652,-161.477 118.165,-165.79"/>
</g>
<!-- 84&#45;&gt;A XOR B -->
<g id="edge4" class="edge"><title>84&#45;&gt;A XOR B</title>
<path fill="none" stroke="red" stroke-width="0.723126" d="M37.4767,-117.053C37.4767,-108.08 37.4767,-96.7061 37.4767,-85.418"/>
<polygon fill="red" stroke="red" stroke-width="0.723126" points="40.9768,-85.147 37.4767,-75.147 33.9768,-85.1471 40.9768,-85.147"/>
</g>
</g>
</svg>
